<?xml version="1.0" encoding="UTF-8"?><svg id="a" xmlns="http://www.w3.org/2000/svg" viewBox="0 0 700 300"><defs><style>.c{fill:#ff7d08;}.d{fill:#53605b;}</style></defs><path class="d" d="m162.17,181.29c-11.73,19.72-32.91,31.92-55.54,31.92-24.54,0-45.94-13.96-56.99-34.52,5.39.36,10.74-.68,15.55-2.92,9.02,13.62,24.24,22.58,41.44,22.58s33.57-9.34,42.66-24.45l12.88,7.39Z"/><path class="d" d="m162.17,112.49l-12.88,7.39c-9.1-15.12-25.35-24.46-42.66-24.46s-32.43,8.95-41.43,22.58c-.05-.03-.1-.05-.15-.08-5-2.29-10.28-3.19-15.41-2.84,11.05-20.56,32.45-34.52,56.99-34.52,22.62,0,43.81,12.21,55.54,31.94Z"/><path class="d" d="m230.05,214.3c-28.68,0-52.02-23.82-52.02-53.1s23.34-53.1,52.02-53.1,52.02,23.82,52.02,53.1-23.34,53.1-52.02,53.1Zm0-92.79c-21.29,0-38.62,17.81-38.62,39.69s17.32,39.69,38.62,39.69,38.62-17.81,38.62-39.69-17.32-39.69-38.62-39.69Z"/><path class="d" d="m350.15,214.3c-28.68,0-52.02-23.82-52.02-53.1s23.34-53.1,52.02-53.1,52.02,23.82,52.02,53.1-23.34,53.1-52.02,53.1Zm0-92.79c-21.29,0-38.62,17.81-38.62,39.69s17.32,39.69,38.62,39.69,38.62-17.81,38.62-39.69-17.32-39.69-38.62-39.69Z"/><path class="d" d="m505.1,214.29c-23.59,0-42.77-19.57-42.77-43.63v-88.76h13.41v88.76c0,16.67,13.17,30.22,29.37,30.22,6.28,0,12.27-2.01,17.31-5.81l8.07,10.7c-7.39,5.57-16.16,8.51-25.38,8.51Z"/><path class="d" d="m350.16,261.72c-13.51,0-26.31-5.26-36.03-14.81l9.39-9.56c7.2,7.07,16.66,10.97,26.63,10.97,21.29,0,38.62-17.81,38.62-39.69v-48.46h13.41v48.46c0,29.28-23.34,53.1-52.02,53.1Z"/><rect class="d" x="469.03" y="111.79" width="42.46" height="13.41"/><path class="d" d="m436.94,113.05v97.01h-13.4v-97c4.48,1.27,9.12,1.21,13.4-.01Z"/><path class="d" d="m584.98,214.3c-28.68,0-52.02-23.82-52.02-53.1s23.34-53.1,52.02-53.1,52.02,23.82,52.02,53.1-23.34,53.1-52.02,53.1Zm0-92.79c-21.29,0-38.62,17.81-38.62,39.69s17.32,39.69,38.62,39.69,38.61-17.81,38.61-39.69-17.32-39.69-38.61-39.69Z"/><circle class="c" cx="51.75" cy="146.89" r="14.31"/><circle class="c" cx="430.24" cy="89.55" r="7.65"/></svg>