<?xml version="1.0" encoding="UTF-8"?><svg id="Layer_2" xmlns="http://www.w3.org/2000/svg" viewBox="0 0 190.1 202.16"><defs><style>.cls-1{fill:#f47d20;}.cls-2{fill:#d9dada;}</style></defs><g id="Layer_1-2"><path class="cls-2" d="m190.1,153.5c-17.88,30.04-50.15,48.65-84.65,48.65-37.4,0-70.01-21.28-86.86-52.61,8.21.54,16.37-1.04,23.7-4.45,13.75,20.75,36.93,34.41,63.16,34.41s51.16-14.24,65.02-37.26l19.63,11.26Z"/><path class="cls-2" d="m190.1,48.67l-19.63,11.26c-13.86-23.04-38.63-37.28-65.02-37.28s-49.43,13.65-63.14,34.41c-.08-.05-.15-.08-.23-.12-7.61-3.49-15.67-4.86-23.49-4.33C35.44,21.28,68.06,0,105.45,0c34.48,0,66.76,18.61,84.65,48.67Z"/><circle class="cls-1" cx="21.82" cy="101.08" r="21.81"/></g></svg>