<?xml version="1.0" encoding="UTF-8"?><svg id="c" xmlns="http://www.w3.org/2000/svg" xmlns:xlink="http://www.w3.org/1999/xlink" viewBox="0 0 500 500"><defs><style>.f{mask:url(#d);}.g{fill:#fff;}.h{fill:#3c0;}.i{fill:#53605b;}.j{filter:url(#e);}</style><filter id="e" x="-57.01" y="13.27" width="550.33" height="473.46" color-interpolation-filters="sRGB" filterUnits="userSpaceOnUse"><feColorMatrix result="cm" values="-1 0 0 0 1 0 -1 0 0 1 0 0 -1 0 1 0 0 0 1 0"/><feFlood flood-color="#fff" result="bg"/><feBlend in="cm" in2="bg"/></filter><mask id="d" x="-57.01" y="13.27" width="550.33" height="473.46" maskUnits="userSpaceOnUse"><g class="j"><circle class="g" cx="58.12" cy="250" r="115.13"/></g></mask></defs><g class="f"><path class="i" d="m288.84,223.26c.4,0,56.05-.32,95.99-.52,23.49-.11,42.27-.16,55.8-.14,8.11.01,14.44.05,18.82.11,9.74.14,18.15.25,26.1,8.33h0c5.13,5.21,7.92,12.27,7.76,19.57h0c-1.41,62.25-26.53,121.15-70.75,165.85-44.82,45.31-103.73,70.27-165.88,70.27s-122.68-24.62-167.39-69.34c-44.45-44.45-69.33-104.53-69.34-167.39,0-63.23,24.62-122.68,69.34-167.4C134,37.9,193.45,13.27,256.68,13.27c39.5,0,75.78,7.81,107.82,23.2,32.74,15.73,61.25,39.47,84.75,70.55l16.28,21.54-43.08,32.56-16.28-21.54c-18.26-24.16-40.15-42.47-65.06-54.44-24.68-11.86-53.09-17.87-84.43-17.87-100.76,0-182.73,81.97-182.73,182.73s81.97,182.73,182.73,182.73c47.62,0,92.9-19.26,127.49-54.24,27.94-28.24,46.1-63.7,52.56-101.89-34.04-.06-92.2.34-132.16.66l-27,.22"/></g><circle class="h" cx="58.12" cy="250" r="51.8"/></svg>